<?xml version="1.0" standalone="no"?><!DOCTYPE svg PUBLIC "-//W3C//DTD SVG 1.1//EN" "http://www.w3.org/Graphics/SVG/1.1/DTD/svg11.dtd"><svg t="1693305622914" class="icon" viewBox="0 0 1024 1024" version="1.1" xmlns="http://www.w3.org/2000/svg" p-id="5986" xmlns:xlink="http://www.w3.org/1999/xlink" width="128" height="128"><path d="M234.4 794.35c-21.95-0.1-39.68-17.98-39.58-39.93 0-1.74 0.13-3.49 0.36-5.21 14.88-115.99 86.15-209.63 179.16-239.44-73.36-35.08-104.39-123-69.3-196.36 35.08-73.36 123-104.39 196.36-69.3 50.52 24.16 82.96 74.9 83.7 130.91 0.4 26.83-6.63 53.23-20.3 76.32-61.06 3.16-114 43.29-133.54 101.23-24.75 72.4 7.51 152.1 86.26 213.28l0.44 0.36c6.84 5.39 8.01 15.31 2.62 22.15-2.99 3.8-7.56 6.01-12.39 6H234.4z m405.41-3.62a867.23 867.23 0 0 1-91.84-63.43c-175.86-136.28-3.74-298.83 98.48-193.24a6.036 6.036 0 0 0 8.54 0.1l0.1-0.1c102.17-105.59 274.25 56.98 98.43 193.19a868.257 868.257 0 0 1-91.84 63.43 20.055 20.055 0 0 1-21.79 0l-0.06 0.05z" p-id="5987"></path></svg>