<?xml version="1.0" standalone="no"?><!DOCTYPE svg PUBLIC "-//W3C//DTD SVG 1.1//EN" "http://www.w3.org/Graphics/SVG/1.1/DTD/svg11.dtd"><svg t="1693305685104" class="icon" viewBox="0 0 1024 1024" version="1.1" xmlns="http://www.w3.org/2000/svg" p-id="7023" xmlns:xlink="http://www.w3.org/1999/xlink" width="128" height="128"><path d="M690.042487 401.301805 690.042487 111.933325c0 0-143.026484-75.81778-309.957401-17.362436L690.042487 401.301805 690.042487 401.301805zM690.042487 401.301805" l="#3FD5FF" p-id="7024"></path><path d="M717.118146 571.461253 717.118146 123.915217c0 0 169.113629 75.816756 216.749556 260.081457L717.118146 571.461253 717.118146 571.461253zM717.118146 571.461253" l="#3FD5FF" p-id="7025"></path><path d="M626.148271 701.544961l312.110437-290.50128c0 0 55.256488 88.845491-27.104311 290.50128L626.148271 701.544961 626.148271 701.544961zM626.148271 701.544961" l="#3FD5FF" p-id="7026"></path><path d="M466.778564 738.364541l421.545872 0c0 0-50.89311 136.569422-233.005798 192.901405L466.778564 738.364541 466.778564 738.364541zM466.778564 738.364541" l="#3FD5FF" p-id="7027"></path><path d="M329.161277 646.202515l0 272.006044c0 0 109.493763 69.38937 296.986995 22.800285L329.161277 646.202515 329.161277 646.202515zM329.161277 646.202515" l="#3FD5FF" p-id="7028"></path><path d="M85.277734 660.307767l213.550701-189.645245L298.828434 901.921617C298.828434 901.921617 169.848874 857.601202 85.277734 660.307767L85.277734 660.307767zM85.277734 660.307767" l="#3FD5FF" p-id="7029"></path><path d="M79.868537 629.973902c0 0-48.770773-156.025543 19.514449-291.489794l293.672506 0L79.868537 629.973902 79.868537 629.973902zM79.868537 629.973902" l="#3FD5FF" p-id="7030"></path><path d="M117.850593 308.034609c0 0 61.770855-138.605801 229.719962-203.662493l200.463638 203.662493L117.850593 308.034609 117.850593 308.034609zM117.850593 308.034609" l="#3FD5FF" p-id="7031"></path></svg>