<?xml version="1.0" standalone="no"?><!DOCTYPE svg PUBLIC "-//W3C//DTD SVG 1.1//EN" "http://www.w3.org/Graphics/SVG/1.1/DTD/svg11.dtd"><svg t="1693450627971" class="icon" viewBox="0 0 1024 1024" version="1.1" xmlns="http://www.w3.org/2000/svg" p-id="7360" xmlns:xlink="http://www.w3.org/1999/xlink" width="128" height="128"><path d="M869.447 241.935c-0.132-0.178-0.267-0.354-0.401-0.531-0.601-0.792-1.19-1.594-1.796-2.382l-0.057 0.047C855.454 224.975 837.777 216 818 216c-35.346 0-64 28.654-64 64 0 15.215 5.319 29.181 14.185 40.164l-0.028 0.023C808.246 373.638 832 440.044 832 512c0 176.731-143.269 320-320 320S192 688.731 192 512c0-71.956 23.754-138.362 63.843-191.813l-0.028-0.023C264.681 309.181 270 295.214 270 280c0-35.346-28.654-64-64-64-19.777 0-37.454 8.975-49.194 23.069l-0.057-0.047c-0.606 0.787-1.194 1.589-1.795 2.381-0.135 0.178-0.27 0.355-0.402 0.534C97.727 317.03 64 410.57 64 512c0 247.424 200.576 448 448 448s448-200.576 448-448c0-101.43-33.728-194.971-90.553-270.065z" p-id="7361"></path><path d="M512 512c35.2 0 64-28.8 64-64V128c0-35.2-28.8-64-64-64s-64 28.8-64 64v320c0 35.2 28.8 64 64 64z" p-id="7362"></path></svg>